<svg width="40" height="42" viewBox="0 0 52 54" fill="none" xmlns="http://www.w3.org/2000/svg">
<path d="M6.00018 25.4366C6.05601 21.4538 8.03779 16.7079 11.9269 12.7623C15.9556 8.90039 20.7473 6.92759 26.3391 7.00203C37.0296 7.13231 46.1198 15.9169 45.9988 27.3164C45.8406 32.7602 43.8961 37.4503 39.9976 41.2656C36.0154 45.1647 31.1959 47.0723 25.6134 46.9979C14.8857 46.849 5.95366 38.0179 6.00018 25.4459V25.4366ZM34.6291 29.6149C34.6291 27.0651 34.6291 24.5153 34.6291 21.9563C34.6291 21.7391 34.5237 21.6306 34.3128 21.6306C31.1494 21.6306 27.9766 21.6306 24.8132 21.6306C24.7481 21.6306 24.6923 21.6306 24.6271 21.6306C24.469 21.6306 24.4504 21.6027 24.441 21.4445C24.441 21.1467 24.4224 20.8396 24.441 20.5418C24.4783 19.8253 24.8597 19.2483 25.5948 19.0064C25.8553 18.9226 26.1251 18.8761 26.4042 18.8761C27.3067 18.8761 28.2092 18.8761 29.1117 18.8761C29.3102 18.8761 29.4095 18.7799 29.4095 18.5876C29.4095 17.35 29.4095 16.1216 29.4095 14.884C29.4095 14.6916 29.3133 14.5955 29.121 14.5955C27.9673 14.5955 26.8136 14.5955 25.6599 14.5955C25.2598 14.5955 24.8597 14.6141 24.4597 14.6699C23.5944 14.7723 22.7756 15.0235 22.022 15.4423C20.8589 16.0844 20.0402 17.0336 19.575 18.2898C19.3331 18.9505 19.2307 19.6299 19.2214 20.3371C19.2214 20.7 19.2214 21.0629 19.2214 21.4259C19.2214 21.6213 19.2028 21.6399 19.0074 21.6399C18.9516 21.6399 18.8958 21.6399 18.8399 21.6399C18.0584 21.6399 17.2768 21.6399 16.486 21.6399C16.2627 21.6399 16.2534 21.6585 16.2441 21.8725C16.2441 21.8911 16.2441 21.9098 16.2441 21.9284C16.2441 23.166 16.2441 24.413 16.2441 25.6506C16.2441 25.6972 16.2441 25.7344 16.2441 25.7809C16.2441 25.874 16.2906 25.9205 16.3836 25.9205C16.4395 25.9205 16.4953 25.9205 16.5511 25.9205C17.3327 25.9205 18.1142 25.9205 18.9051 25.9205C18.9702 25.9205 19.026 25.9205 19.0911 25.9205C19.1656 25.9205 19.2028 25.967 19.2121 26.0415C19.2121 26.1066 19.2121 26.1811 19.2121 26.2462C19.2121 29.9126 19.2121 33.5791 19.2121 37.2455C19.2121 37.5992 19.2028 37.5712 19.5471 37.5712C21.0729 37.5712 22.5895 37.5712 24.1154 37.5712C24.4504 37.5712 24.4317 37.5898 24.4317 37.2548C24.4317 33.5791 24.4317 29.894 24.4317 26.2183C24.4317 26.0198 24.5341 25.9205 24.7388 25.9205C26.1902 25.9205 27.651 25.9205 29.1024 25.9205C29.4653 25.9205 29.4374 25.9112 29.4374 26.2555C29.4374 29.9313 29.4374 33.6163 29.4374 37.2921C29.4374 37.4782 29.5304 37.5712 29.7165 37.5712C31.2424 37.5712 32.759 37.5712 34.2849 37.5712C34.5082 37.5712 34.6198 37.4627 34.6198 37.2455C34.6198 34.6958 34.6198 32.1553 34.6198 29.6056L34.6291 29.6149Z" fill="white"/>
</svg>
