<svg width="90" height="90" viewBox="0 0 141 141" fill="none" xmlns="http://www.w3.org/2000/svg">
<g clip-path="url(#clip0_95_16)">
<path d="M70.5007 141.001C109.437 141.001 141.001 109.437 141.001 70.5007C141.001 31.5642 109.437 0 70.5007 0C31.5642 0 0 31.5642 0 70.5007C0 109.437 31.5642 141.001 70.5007 141.001Z" fill="white"/>
<path d="M100.229 73.2418C100.354 73.1474 100.497 73.0698 100.597 72.9542C101.456 71.9686 102.581 71.9432 103.767 72.0546C104.138 72.6524 104.376 73.2686 104.445 73.9962C104.726 76.9163 104.853 79.8463 104.851 82.7749C104.851 84.1849 104.543 85.5935 104.372 87.0036C104.369 87.0261 104.364 87.0487 104.352 87.0684C103.508 88.5518 102.958 90.2029 101.83 91.5241C101.201 92.2615 100.54 92.9736 99.9334 93.7293C99.5907 94.1566 99.203 94.447 98.6587 94.526C98.5262 94.5457 98.4007 94.5993 98.2371 94.6473C98.2075 94.7911 98.1624 94.9391 98.1483 95.0886C98.1116 95.4933 98.0496 95.8993 98.0665 96.3026C98.137 98.0976 97.5998 99.7515 97.0428 101.431C96.2983 103.673 95.2972 105.76 94.0268 107.748C93.2583 108.95 92.449 110.095 91.4408 111.109C90.2169 112.34 89.0509 113.629 87.8453 114.877C87.5675 115.164 87.2489 115.428 86.9091 115.64C85.3778 116.591 83.838 117.53 82.2856 118.448C81.9867 118.626 81.6285 118.742 81.2831 118.797C79.5925 119.066 77.8977 119.313 76.2014 119.55C75.7361 119.614 75.2595 119.652 74.79 119.643C72.5368 119.593 70.2836 119.493 68.029 119.472C66.7726 119.461 65.5755 119.145 64.3629 118.909C62.9261 118.63 61.495 118.32 60.0638 118.007C59.7606 117.941 59.4533 117.842 59.1825 117.694C57.7979 116.938 56.4189 116.17 55.0498 115.386C54.7833 115.233 54.5309 115.023 54.3307 114.791C53.0842 113.334 51.8519 111.868 50.6238 110.396C50.439 110.174 50.2769 109.922 50.1528 109.661C48.9994 107.216 47.8517 104.767 46.7138 102.313C46.5728 102.01 46.4684 101.683 46.3923 101.358C46.0567 99.932 45.7056 98.5093 45.4236 97.0739C45.198 95.9261 45.0669 94.7615 44.892 93.6038C44.8723 93.4741 44.8469 93.3444 44.8173 93.1667C44.5903 93.2217 44.3859 93.2401 44.2096 93.319C43.4933 93.6377 42.7573 93.5362 42.0184 93.46C41.7068 93.4276 41.4911 93.2979 41.3036 93.0314C40.0289 91.2266 38.7317 89.4387 37.457 87.6338C37.3076 87.4223 37.2117 87.1544 37.1581 86.8992C37.0129 86.1942 36.8719 85.4836 36.7901 84.7687C36.714 84.1003 36.6942 83.4235 36.69 82.751C36.6844 81.7851 36.7168 80.8192 36.8183 79.8534C36.8789 80.7939 36.8973 81.7414 37.0115 82.6748C37.1934 84.1483 37.4317 85.6161 37.6685 87.0825C37.7024 87.2912 37.8377 87.4943 37.9618 87.6761C39.0912 89.3371 40.3123 90.9262 41.6462 92.4307C41.907 92.7254 42.1679 92.8551 42.5627 92.8692C43.2959 92.896 43.9953 92.7818 44.7651 92.5407C44.6904 91.7849 44.6326 91.0292 44.5381 90.2762C44.2886 88.2867 44.0362 86.2972 43.7528 84.3119C43.6978 83.9241 43.5074 83.5533 43.3579 83.1824C43.2846 82.9991 43.162 82.8342 43.0421 82.6255C43.5398 82.3491 43.5328 81.9092 43.4806 81.4495C43.4482 81.1591 43.3918 80.863 43.4143 80.5739C43.4623 79.9775 43.2141 79.5855 42.6219 79.3176C42.3315 79.601 42.0184 79.9041 41.6067 80.306C41.7294 79.7265 41.8295 79.2894 41.9113 78.8495C41.9677 78.5463 42.1115 78.3729 42.433 78.3292C42.6727 78.2967 42.9025 78.2008 43.2028 78.1134C42.2736 76.4059 41.2486 74.8422 39.7243 73.5534C39.0038 74.1513 38.2692 74.7618 37.5332 75.3724C37.4965 75.3512 37.4584 75.3287 37.4218 75.3075C37.5501 74.704 37.7433 74.1062 37.794 73.4956C37.8829 72.4156 38.3764 71.6866 39.3225 71.1508C39.7963 70.8829 40.1643 70.7348 40.6803 70.9731C41.1188 71.1747 41.5968 71.289 42.1482 71.4737C42.0819 71.1776 42.0452 70.9858 41.9959 70.7983C40.8298 66.447 39.675 62.0928 38.4821 57.7486C38.2269 56.818 37.8406 55.9212 37.5036 55.0132C37.0735 53.8513 36.6406 52.6895 36.1937 51.5347C36.0442 51.1483 35.9864 50.7733 36.0202 50.3517C36.1528 48.7569 36.2585 47.1594 36.3474 45.5618C36.3854 44.8723 36.5476 44.2533 36.9367 43.6626C37.6432 42.5895 38.3214 41.4954 38.9446 40.373C39.785 38.86 40.8439 37.5403 42.0889 36.3432C43.3396 35.1404 44.5269 33.87 45.7465 32.6362C45.9355 32.4459 46.1455 32.2696 46.3655 32.1145C50.2994 29.3608 54.2306 26.6028 58.369 24.1578C58.7356 23.9421 59.1191 23.7433 59.5167 23.5938C61.2031 22.9593 62.8965 22.3403 64.5914 21.7298C64.8832 21.624 65.1962 21.5366 65.5036 21.5253C67.1026 21.4633 68.7044 21.4562 70.3019 21.3731C71.5977 21.3054 72.8569 21.5084 74.1287 21.6974C79.1427 22.4433 83.9494 23.9872 88.7604 25.5016C90.4693 26.0388 92.2135 26.3574 93.9676 26.6352C94.9419 26.7889 95.7978 27.133 96.6621 27.6152C98.5826 28.6854 100.187 30.0672 101.576 31.7691C102.253 32.5982 102.794 33.385 102.822 34.5003C102.842 35.3054 103.059 36.1049 103.135 36.9114C103.171 37.2808 103.134 37.677 103.035 38.0352C102.767 39.0123 102.463 39.981 102.143 40.9412C102.019 41.3121 102.02 41.6406 102.223 41.9705C102.234 41.9889 102.24 42.0128 102.251 42.0326C103.472 44.3365 104.326 46.7745 104.875 49.3181C104.969 49.7496 104.994 50.205 104.984 50.6492C104.967 51.4148 104.868 52.179 104.854 52.9447C104.82 54.8961 104.423 56.7982 104.024 58.6891C103.433 61.4865 102.801 64.2798 102.048 67.0364C101.575 68.7693 100.839 70.4288 100.241 72.1293C100.132 72.4395 100.119 72.785 100.079 73.1163C100.076 73.1445 100.193 73.1868 100.255 73.2221C100.177 73.4731 100.052 73.7198 100.032 73.975C99.939 75.1651 99.8685 76.3565 99.8022 77.5494C99.6457 80.3384 99.4991 83.1289 99.344 85.9179C99.3031 86.637 99.2819 87.3617 99.1832 88.0738C98.9224 89.9463 98.6206 91.8145 98.34 93.6842C98.3245 93.7871 98.3499 93.8971 98.357 94.0015C98.8232 93.9977 99.1889 93.8558 99.454 93.5756C99.6401 93.3797 99.8093 93.1653 100.007 92.982C101.501 91.6016 102.628 89.9759 103.375 88.0766C103.599 87.5084 103.831 86.9641 103.891 86.3437C103.967 85.5597 104.127 84.7856 104.22 84.0031C104.327 83.1105 104.483 82.2137 104.474 81.3212C104.457 79.7688 104.352 78.2149 104.234 76.6653C104.172 75.8447 104.005 75.0311 103.891 74.2472C103.491 74.1471 103.23 74.1992 102.987 74.4178C102.772 74.6124 102.579 74.8535 102.144 75.0396C102.381 74.5461 102.48 74.1456 102.725 73.882C102.985 73.6028 103.385 73.4562 103.811 73.1981C103.567 72.9894 103.408 72.7963 103.205 72.6947C102.968 72.5763 102.681 72.558 102.432 72.4621C102.105 72.3366 101.834 72.4015 101.539 72.5735C101.116 72.8216 100.667 73.0233 100.228 73.2461L100.229 73.2418ZM46.467 66.9207C45.903 67.5651 45.4067 68.1489 44.8906 68.7143C44.6495 68.9779 44.5565 69.26 44.5283 69.6209C44.3506 71.8671 44.1292 74.1104 43.9502 76.3566C43.8938 77.0672 43.7358 77.7694 43.8994 78.5026C44.3506 80.526 44.7553 82.5592 45.167 84.591C45.2544 85.0197 45.4264 85.3877 45.6901 85.7402C47.9264 88.7421 50.1472 91.7553 52.3792 94.7601C53.2436 95.9247 53.957 97.1684 54.5069 98.5135C55.7252 101.497 56.9759 104.467 58.2026 107.446C58.4761 108.11 58.8766 108.661 59.4392 109.106C60.2711 109.761 61.1002 110.422 61.9236 111.089C62.6075 111.642 63.359 111.79 64.205 111.541C65.4148 111.182 66.626 110.83 67.8443 110.501C68.2532 110.391 68.6832 110.327 69.1062 110.307C71.0647 110.214 73.0261 110.14 74.986 110.066C75.2327 110.056 75.4809 110.073 75.7276 110.097C76.8937 110.21 78.0584 110.353 79.2273 110.442C80.9207 110.571 82.3124 109.937 83.4164 108.663C83.8451 108.168 84.2455 107.652 84.6742 107.157C85.3327 106.395 85.8177 105.541 86.1307 104.585C86.2633 104.178 86.4156 103.777 86.558 103.374C87.0331 102.019 87.7367 100.798 88.649 99.6881C91.0573 96.7637 93.4515 93.8266 95.8556 90.8994C96.7495 89.8123 97.3375 88.5898 97.5321 87.1897C97.7464 85.6499 97.9593 84.1088 98.1511 82.5663C98.3203 81.2028 98.5346 79.8393 98.5938 78.4688C98.6996 75.9914 98.7151 73.5097 98.7475 71.0295C98.7602 70.0947 98.7123 69.1584 98.6911 68.2024C98.591 68.2405 98.529 68.2447 98.5177 68.2701C97.9396 69.6576 97.3079 71.0027 97.2036 72.5636C97.0076 75.4781 95.9388 78.0838 93.9718 80.2722C91.5692 82.9455 88.532 83.8127 85.0803 83.1035C82.6156 82.5959 80.4709 81.4298 78.9185 79.3542C78.7296 79.1018 78.5124 78.8706 78.3178 78.6224C76.9699 76.9008 75.9307 75.0184 75.361 72.8978C75.1481 72.1054 74.7646 71.3158 75.2919 70.4754C74.7364 70.1257 74.2457 69.8113 73.7494 69.5067C73.6577 69.4503 73.5421 69.408 73.4364 69.401C72.1843 69.3234 70.9787 69.5152 69.8028 70.0228C69.8253 70.2032 69.8479 70.3555 69.8634 70.5092C69.9988 71.7895 69.8578 73.0289 69.305 74.2063C68.3547 76.2353 66.8826 77.8864 65.4345 79.5545C65.2879 79.7223 65.106 79.8675 64.9199 79.9916C63.2236 81.1168 61.5048 82.1136 59.4011 82.3858C57.1042 82.6819 55.054 82.1729 53.1547 80.9645C51.45 79.8816 50.064 78.4843 49.2715 76.5751C49.1602 76.3058 48.9783 76.0647 48.8641 75.7968C48.6709 75.3413 48.4594 74.8873 48.3353 74.4107C47.8714 72.644 47.4287 70.8617 47.4907 69.0217C47.5217 68.1221 47.0522 67.5623 46.4699 66.9193L46.467 66.9207ZM98.5501 65.7829C98.5501 64.7719 98.5981 63.8511 98.5417 62.936C98.3358 59.6296 98.0933 56.3259 97.8691 53.0194C97.8155 52.2298 97.69 51.4599 97.4405 50.7042C97.1091 49.6988 96.7989 48.685 96.5225 47.6642C96.4041 47.2285 96.163 46.9958 95.7682 46.8012C92.6351 45.2545 89.4217 43.891 86.1843 42.5797C85.7077 42.3865 85.2495 42.3061 84.7419 42.3597C83.2853 42.5106 81.8245 42.6262 80.3694 42.7883C80.0691 42.8222 79.7631 42.9561 79.498 43.1098C77.3717 44.3408 75.2581 45.5915 73.1346 46.8252C72.7666 47.0395 72.3789 47.2257 71.9855 47.392C67.3141 49.3646 62.544 51.0736 57.7641 52.7557C56.794 53.097 55.8338 53.3338 54.8002 53.2929C54.1262 53.2662 53.448 53.3056 52.7726 53.3268C51.6037 53.3635 50.4334 53.41 49.2589 53.4523C49.1658 53.6342 49.0798 53.7893 49.0036 53.9514C47.6162 56.9096 46.2753 59.8862 45.1501 62.9572C44.8751 63.7073 44.6566 64.4462 44.6918 65.2499C44.7102 65.663 44.6946 66.079 44.6946 66.4935C45.3291 65.8082 45.8706 65.099 46.3852 64.37C46.5953 64.0711 46.8491 63.9245 47.2073 63.8554C51.0764 63.1179 54.9736 62.7485 58.9076 63.0813C62.458 63.383 65.8618 64.1374 68.6141 66.6571C69.0428 67.049 69.5884 67.19 70.1609 66.815C70.4415 66.6317 70.7813 66.5414 71.069 66.368C71.9403 65.8435 72.8329 65.9492 73.7353 66.2453C74.1851 66.392 74.6391 66.533 75.072 66.7191C75.4851 66.8982 75.8094 66.8404 76.2014 66.6063C79.3457 64.738 82.7693 63.775 86.4099 63.6298C89.2596 63.5156 92.0373 63.9893 94.6655 65.099C95.9162 65.6278 97.2036 65.6306 98.553 65.7843L98.5501 65.7829ZM58.4973 64.1599C56.9519 64.026 55.47 64.3305 53.9824 64.5942C52.4836 64.8593 51.2681 65.6616 50.1711 66.6557C49.5606 67.2084 49.1644 67.9218 48.9064 68.7058C48.5821 69.6886 48.4975 70.7094 48.6638 71.712C48.9783 73.607 49.4986 75.4513 50.4094 77.156C50.6393 77.5875 50.9537 77.9879 51.2907 78.3447C52.2551 79.3669 53.3408 80.244 54.607 80.8742C56.6925 81.912 58.8568 82.0939 61.0127 81.2042C62.489 80.5965 63.9061 79.8266 64.9735 78.5675C65.1624 78.3447 65.4063 78.1684 65.5882 77.94C65.9506 77.4832 66.3214 77.0263 66.6232 76.53C66.963 75.973 67.2436 75.3808 67.527 74.7914C68.1122 73.576 68.3631 72.2746 68.4238 70.9379C68.4393 70.5825 68.3829 70.2188 68.3166 69.8663C67.8584 67.4382 66.2044 66.0056 64.0668 65.1709C62.2973 64.48 60.4572 63.8314 58.4973 64.1571V64.1599ZM87.0261 82.3491C87.2968 82.3491 87.5675 82.3604 87.8368 82.3477C89.6938 82.2561 91.266 81.5553 92.5971 80.2369C93.6405 79.2034 94.3539 77.9611 95.0406 76.6935C95.1999 76.4003 95.3113 76.0689 95.3776 75.7418C95.6596 74.3515 95.912 72.957 95.8316 71.5244C95.6681 68.6297 93.7871 66.1904 91.0771 65.4529C90.475 65.2894 89.8362 65.2456 89.2116 65.1864C86.5819 64.9368 84.0002 65.106 81.4988 66.0508C80.6021 66.3892 79.7518 66.8065 79.051 67.4495C77.2603 69.0922 76.3452 71.1071 76.7964 73.5591C77.1574 75.5148 78.026 77.2759 79.2696 78.8269C79.7589 79.4374 80.3088 80.0367 80.9419 80.4837C82.7537 81.7611 84.7997 82.3815 87.0261 82.3463V82.3491ZM43.2043 76.8684C43.248 76.8501 43.2917 76.8317 43.3354 76.8134C43.4313 75.6487 43.5257 74.4841 43.6259 73.3208C43.647 73.0783 43.5892 72.8907 43.3932 72.7272C43.0139 72.4099 42.6586 72.0602 42.2779 71.7458C42.1665 71.6542 42.0029 71.6062 41.8563 71.5837C41.501 71.5287 41.1386 71.5117 40.7833 71.4568C40.3165 71.3834 39.9556 71.5484 39.6101 71.9319C40.5168 72.5114 40.9764 73.4378 41.5517 74.2641C42.1397 75.1073 42.6572 75.9998 43.2071 76.8698L43.2043 76.8684Z" fill="black"/>
<path d="M100.229 73.2418C100.668 73.0205 101.118 72.8188 101.541 72.5692C101.835 72.3958 102.106 72.331 102.433 72.4579C102.684 72.5551 102.969 72.5735 103.206 72.6905C103.41 72.792 103.568 72.9852 103.812 73.1939C103.387 73.4519 102.986 73.6 102.727 73.8777C102.481 74.1414 102.383 74.5419 102.146 75.0354C102.58 74.8506 102.773 74.6081 102.989 74.4135C103.231 74.195 103.491 74.1428 103.893 74.2429C104.007 75.0269 104.173 75.8391 104.235 76.6611C104.352 78.2107 104.457 79.7646 104.475 81.317C104.485 82.2095 104.328 83.1063 104.221 83.9988C104.127 84.7814 103.969 85.5555 103.893 86.3395C103.832 86.9584 103.601 87.5041 103.377 88.0724C102.628 89.9716 101.503 91.5974 100.008 92.9778C99.8107 93.1611 99.6401 93.374 99.4554 93.5714C99.1903 93.8515 98.8246 93.9935 98.3584 93.9972C98.3514 93.8929 98.326 93.7829 98.3415 93.68C98.6221 91.8103 98.9224 89.942 99.1847 88.0695C99.2848 87.3575 99.3059 86.6341 99.3454 85.9136C99.5019 83.1246 99.6486 80.3342 99.8037 77.5452C99.8699 76.3537 99.9404 75.1609 100.033 73.9708C100.053 73.7156 100.179 73.4688 100.256 73.2179L100.231 73.239L100.229 73.2418ZM100.423 78.4011C100.418 78.4603 100.416 78.5195 100.411 78.5787C100.97 78.7592 101.162 79.1498 101.197 79.7039C101.26 80.6881 101.381 81.6695 101.491 82.6508C101.558 83.2445 101.484 83.8113 101.252 84.364C101.153 84.5995 101.085 84.8476 101.002 85.0902C101.054 85.1113 101.105 85.1325 101.157 85.155C101.424 84.6206 101.802 84.113 101.934 83.5476C102.284 82.0558 102.065 80.5556 101.803 79.0666C101.723 78.6069 101.31 78.5082 100.995 78.3306C100.861 78.2544 100.616 78.3729 100.421 78.4025L100.423 78.4011Z" fill="white"/>
<path d="M46.467 66.9208C47.0508 67.5652 47.5189 68.1235 47.4879 69.0231C47.4259 70.8632 47.8686 72.6454 48.3325 74.4122C48.4566 74.8874 48.6681 75.3428 48.8612 75.7982C48.9755 76.0661 49.1559 76.3072 49.2687 76.5766C50.0598 78.4857 51.4472 79.883 53.1519 80.9659C55.0526 82.1743 57.1028 82.6833 59.3983 82.3872C61.502 82.1151 63.2208 81.1182 64.9171 79.993C65.1032 79.8689 65.2851 79.7237 65.4317 79.5559C66.8798 77.8879 68.3519 76.2367 69.3022 74.2077C69.8535 73.0304 69.9959 71.791 69.8606 70.5107C69.8451 70.357 69.8225 70.2033 69.8 70.0242C70.9759 69.5152 72.1815 69.3249 73.4336 69.4024C73.5407 69.4095 73.6549 69.4518 73.7466 69.5082C74.2429 69.8127 74.7336 70.1257 75.2891 70.4768C74.7618 71.3172 75.1453 72.1068 75.3582 72.8992C75.9279 75.0199 76.9671 76.9023 78.315 78.6239C78.5096 78.8721 78.7268 79.1033 78.9157 79.3557C80.4681 81.4312 82.6128 82.5973 85.0775 83.1049C88.5292 83.8156 91.5663 82.947 93.969 80.2736C95.936 78.0853 97.0062 75.4796 97.2008 72.5651C97.3051 71.0028 97.9368 69.6576 98.5149 68.2716C98.5262 68.2448 98.5882 68.2406 98.6883 68.2039C98.7095 69.1599 98.7574 70.0961 98.7447 71.031C98.7123 73.5112 98.6982 75.9928 98.591 78.4702C98.5318 79.8393 98.3175 81.2042 98.1483 82.5677C97.9565 84.1103 97.7436 85.6514 97.5293 87.1911C97.3347 88.5899 96.7467 89.8124 95.8528 90.9009C93.4473 93.8281 91.0531 96.7637 88.6462 99.6895C87.7325 100.799 87.0303 102.02 86.5552 103.375C86.4127 103.78 86.2605 104.179 86.1279 104.586C85.8149 105.542 85.3299 106.397 84.6714 107.158C84.2441 107.653 83.8423 108.169 83.4136 108.664C82.3096 109.939 80.9179 110.572 79.2245 110.444C78.0556 110.356 76.8923 110.212 75.7248 110.098C75.4795 110.074 75.2299 110.059 74.9832 110.067C73.0232 110.142 71.0633 110.214 69.1034 110.308C68.6804 110.328 68.2504 110.393 67.8414 110.503C66.6232 110.831 65.412 111.184 64.2022 111.542C63.3562 111.793 62.6047 111.644 61.9208 111.091C61.0959 110.425 60.2683 109.764 59.4364 109.107C58.8738 108.663 58.4733 108.112 58.1998 107.447C56.9745 104.467 55.7238 101.497 54.5041 98.515C53.9542 97.1698 53.2422 95.9248 52.3764 94.7615C50.1444 91.7568 47.9236 88.7436 45.6873 85.7417C45.425 85.3891 45.2516 85.0211 45.1642 84.5925C44.7525 82.5607 44.3478 80.5274 43.8966 78.504C43.733 77.7708 43.8909 77.0686 43.9473 76.358C44.1264 74.1118 44.3478 71.8685 44.5255 69.6224C44.5537 69.2628 44.6467 68.9808 44.8878 68.7157C45.4039 68.1503 45.9002 67.5666 46.4642 66.9222L46.467 66.9208ZM69.3741 93.931C69.5955 93.8605 69.8169 93.7914 70.0382 93.7209C69.7703 93.6645 69.5194 93.6575 69.384 93.9409C69.1288 94.0001 68.8722 94.0607 68.617 94.12C68.3491 94.3117 67.9289 94.2581 67.7752 94.6346C67.472 94.495 67.2591 94.7122 67.0194 94.8264C66.5654 95.0026 66.1071 95.1718 65.6587 95.3608C65.5798 95.3932 65.5347 95.506 65.4698 95.5779C65.2654 95.6033 65.0609 95.6287 64.8564 95.654C64.8691 95.7034 64.8818 95.7542 64.8945 95.8035C65.082 95.7245 65.2696 95.6456 65.4585 95.5666C65.7659 95.4482 66.0817 95.3467 66.3793 95.2057C66.6006 95.1013 66.798 94.9462 67.0095 94.8165C67.2605 94.7531 67.5129 94.6882 67.7639 94.6247C68.0459 94.4555 68.4717 94.519 68.6085 94.1115C68.9173 94.2779 69.1302 94.0424 69.3741 93.931ZM86.0898 95.6287C82.538 93.1555 79.0285 90.7105 75.5246 88.2712C74.5898 88.7027 73.686 89.1102 72.792 89.5374C72.51 89.6714 72.2562 89.6897 71.9545 89.5952C70.9026 89.2639 69.8338 88.9804 68.7876 88.6336C68.3364 88.4841 67.9937 88.549 67.5989 88.8014C64.0654 91.0546 60.5178 93.288 56.9759 95.5286C56.8081 95.6343 56.6488 95.7542 56.4514 95.8923C56.6389 96.8497 56.8236 97.7888 57.0083 98.7293C57.6203 98.4275 58.1561 98.1413 58.7074 97.8932C60.3303 97.1642 61.973 96.4775 63.5818 95.7203C65.3344 94.8969 67.0617 94.0184 68.7932 93.1485C69.133 92.9778 69.4573 92.9073 69.8296 92.9835C70.4472 93.1076 71.0704 93.2063 71.6908 93.3191C72.4014 93.4488 73.1093 93.5334 73.8382 93.4516C75.6106 93.2514 75.6191 93.2472 77.1941 94.0213C80.0226 95.4115 82.9469 96.61 85.6513 98.2513C85.7345 98.3021 85.8459 98.3035 85.9785 98.3373C86.0165 97.3912 86.0532 96.493 86.0884 95.6287H86.0898ZM70.6417 103.298C70.6206 103.351 70.6008 103.405 70.5797 103.46C71.1536 104.176 71.7232 104.897 72.3027 105.609C72.7525 106.16 73.4886 106.157 73.9567 105.602C74.5066 104.949 75.0452 104.286 75.5852 103.625C75.6769 103.513 75.7432 103.381 75.8842 103.161C74.0652 103.209 72.3535 103.254 70.6417 103.299V103.298ZM76.7809 77.7229C76.7231 77.7483 76.6667 77.7722 76.6089 77.7976C76.8528 78.3447 77.0446 78.9242 77.3548 79.4318C77.8455 80.237 78.4292 80.9857 78.9467 81.7767C79.4261 82.5099 79.9027 83.2487 80.3173 84.0186C80.7374 84.7983 80.5993 85.5851 79.9915 86.1971C79.5234 86.668 78.9368 87.0233 78.394 87.4182C78.222 87.5436 78.0232 87.6311 77.7524 87.7833C80.0282 87.8242 81.2916 86.1548 80.8573 84.357C80.6528 83.5068 80.2397 82.7708 79.7448 82.0657C78.9566 80.942 78.1797 79.8097 77.4013 78.6789C77.187 78.3659 76.9868 78.043 76.7809 77.7243V77.7229ZM70.5219 85.9588C70.3104 84.9365 70.168 84.8068 69.2825 84.6334C68.256 84.4332 67.2253 84.4896 66.1917 84.5389C65.8505 84.5558 65.7208 84.7293 65.7166 85.0225C67.1576 86.1816 68.7904 86.1788 70.5219 85.9588ZM83.5913 98.3133C76.9783 97.284 70.3499 97.0373 63.6988 97.9326C70.3442 97.3573 76.9685 97.7775 83.5913 98.3133ZM79.0229 85.3454C77.9146 85.0916 76.8472 84.8449 75.777 84.6038C75.0255 84.4346 74.343 84.9196 74.1936 85.7318C75.605 86.1675 77.0249 86.348 78.4885 85.9729C78.8212 85.8883 79.0045 85.7558 79.0214 85.3454H79.0229ZM63.9949 85.6514C64.0104 86.8626 65.2936 87.7763 66.7896 87.593C65.8435 86.9359 64.9128 86.2887 63.9949 85.6514ZM76.8416 100.41C76.4566 100.427 76.2113 100.445 75.9659 100.447C75.5641 100.451 75.1495 100.509 74.7618 100.431C72.9386 100.066 71.1268 100.373 69.3093 100.497C69.7478 100.567 70.1891 100.603 70.6248 100.574C71.7472 100.497 72.8653 100.323 73.9905 100.547C74.9 100.727 75.8066 100.729 76.8402 100.41H76.8416ZM70.6079 93.9141C70.5896 93.9451 70.5726 93.9775 70.5543 94.0086C70.7757 94.1073 70.9956 94.206 71.217 94.3047C71.2311 94.2708 71.2438 94.237 71.2579 94.2031C71.0408 94.1058 70.8236 94.01 70.6065 93.9127L70.6079 93.9141ZM74.7844 94.2807C74.7632 94.2469 74.7421 94.213 74.7195 94.1792C74.5094 94.2821 74.2993 94.3836 74.0892 94.4866C74.1033 94.5162 74.1174 94.5444 74.1315 94.574C74.3487 94.4767 74.5658 94.3794 74.7829 94.2821L74.7844 94.2807ZM75.9222 94.299C75.9392 94.2708 75.9547 94.2426 75.9716 94.2144C75.8447 94.1608 75.7178 94.1087 75.5923 94.0551C75.5824 94.0791 75.5711 94.103 75.5613 94.127C75.6825 94.1848 75.8024 94.2412 75.9237 94.299H75.9222ZM71.8247 94.4527C71.805 94.4823 71.7853 94.5133 71.7655 94.543C71.8981 94.5979 72.0306 94.6529 72.1631 94.7079C72.1744 94.6825 72.1857 94.6572 72.197 94.6318L71.8247 94.4527ZM62.6061 98.0257C62.6061 98.0257 62.6117 98.0356 62.6145 98.0398H62.8556C62.8556 98.0398 62.8556 98.0299 62.8556 98.0257H62.6061Z" fill="white"/>
<path d="M98.5502 65.7829C97.1994 65.6278 95.912 65.6264 94.6628 65.0976C92.0345 63.988 89.2568 63.5142 86.4071 63.6284C82.7665 63.7736 79.3415 64.7367 76.1986 66.6049C75.8066 66.8376 75.4823 66.8954 75.0692 66.7177C74.6363 66.5302 74.1823 66.3906 73.7325 66.244C72.8301 65.9479 71.9376 65.8421 71.0662 66.3666C70.7785 66.5401 70.4373 66.6303 70.1581 66.8136C69.5857 67.1887 69.04 67.0477 68.6113 66.6557C65.859 64.136 62.4566 63.3816 58.9048 63.0799C54.9709 62.7457 51.0736 63.1166 47.2045 63.854C46.8464 63.9217 46.5926 64.0697 46.3825 64.3687C45.8692 65.0976 45.3278 65.8069 44.6919 66.4921C44.6919 66.0776 44.706 65.6616 44.689 65.2485C44.6538 64.4434 44.8723 63.706 45.1473 62.9558C46.2711 59.8848 47.6134 56.9083 49.0009 53.9501C49.077 53.7893 49.163 53.6328 49.2561 53.4509C50.432 53.4086 51.6009 53.3635 52.7698 53.3254C53.4452 53.3043 54.1234 53.2648 54.7974 53.2916C55.831 53.3325 56.7912 53.0956 57.7613 52.7544C62.5412 51.0708 67.3127 49.3633 71.9827 47.3907C72.3761 47.2243 72.7624 47.0382 73.1318 46.8239C75.2553 45.5887 77.3689 44.3394 79.4952 43.1085C79.7603 42.9548 80.0677 42.8208 80.3666 42.787C81.8218 42.6248 83.2825 42.5092 84.7391 42.3583C85.2453 42.3062 85.7049 42.3865 86.1815 42.5783C89.4189 43.8896 92.6309 45.2531 95.7654 46.7999C96.1602 46.9945 96.4013 47.2285 96.5198 47.6628C96.7975 48.6837 97.1063 49.6975 97.4377 50.7028C97.6872 51.4586 97.8127 52.2298 97.8663 53.018C98.0905 56.3231 98.333 59.6282 98.5389 62.9347C98.5953 63.8498 98.5473 64.7719 98.5473 65.7815L98.5502 65.7829Z" fill="white"/>
<path d="M58.4973 64.1599C60.4586 63.8328 62.2973 64.4828 64.0668 65.1737C66.2044 66.0084 67.8584 67.441 68.3166 69.8691C68.3829 70.2216 68.4393 70.5853 68.4238 70.9407C68.3631 72.2774 68.1122 73.5788 67.527 74.7942C67.2436 75.3822 66.9616 75.9758 66.6232 76.5328C66.32 77.0291 65.9492 77.486 65.5882 77.9428C65.4077 78.1712 65.1624 78.3475 64.9735 78.5703C63.9047 79.8294 62.489 80.5993 61.0127 81.207C58.8568 82.0953 56.6924 81.9148 54.607 80.877C53.3408 80.2468 52.2551 79.3697 51.2907 78.3475C50.9537 77.9907 50.6393 77.5903 50.4094 77.1588C49.4986 75.4527 48.9769 73.6084 48.6638 71.7148C48.4974 70.7108 48.582 69.6914 48.9063 68.7086C49.1658 67.9247 49.562 67.2098 50.1711 66.6585C51.2681 65.6644 52.485 64.8635 53.9824 64.597C55.4686 64.3333 56.9519 64.0288 58.4973 64.1627V64.1599Z" fill="white"/>
<path d="M87.0261 82.3491C84.7997 82.3844 82.7538 81.764 80.9419 80.4865C80.3088 80.0395 79.7589 79.4389 79.2696 78.8297C78.026 77.2787 77.1574 75.5176 76.7964 73.5619C76.3438 71.1099 77.2603 69.095 79.0511 67.4523C79.7532 66.8079 80.6021 66.392 81.4988 66.0536C84.0002 65.1089 86.5819 64.9397 89.2116 65.1892C89.8377 65.2485 90.4764 65.2908 91.0771 65.4557C93.7871 66.1932 95.6681 68.6339 95.8316 71.5273C95.912 72.9612 95.6596 74.3543 95.3776 75.7446C95.3113 76.0717 95.1999 76.4031 95.0406 76.6964C94.3525 77.9626 93.6405 79.2062 92.5971 80.2397C91.2674 81.5567 89.6938 82.2575 87.8369 82.3505C87.5675 82.3646 87.2968 82.3519 87.0261 82.3519V82.3491Z" fill="white"/>
<path d="M43.2042 76.8684C42.6558 75.997 42.1369 75.1059 41.5489 74.2627C40.9736 73.4378 40.5139 72.5115 39.6073 71.9305C39.9528 71.547 40.3137 71.382 40.7804 71.4553C41.1358 71.5117 41.4981 71.5273 41.8535 71.5823C42.0001 71.6048 42.1651 71.6528 42.275 71.7444C42.6572 72.0602 43.0111 72.4085 43.3904 72.7258C43.5864 72.8893 43.6442 73.0783 43.623 73.3194C43.5229 74.4841 43.4298 75.6473 43.3326 76.812C43.2888 76.8303 43.2451 76.8487 43.2014 76.867L43.2042 76.8684Z" fill="white"/>
<path d="M100.423 78.4011C100.617 78.3715 100.863 78.2531 100.996 78.3292C101.309 78.5069 101.723 78.6056 101.804 79.0652C102.067 80.5542 102.285 82.0545 101.936 83.5463C101.803 84.1117 101.425 84.6193 101.159 85.1537C101.106 85.1325 101.056 85.1114 101.004 85.0888C101.085 84.8463 101.153 84.5981 101.253 84.3626C101.486 83.8113 101.559 83.2445 101.493 82.6495C101.383 81.6681 101.262 80.6867 101.198 79.7026C101.163 79.1484 100.97 78.7578 100.413 78.5774C100.417 78.5181 100.42 78.4589 100.424 78.3997L100.423 78.4011Z" fill="black"/>
<path d="M86.0898 95.6286C86.0546 96.4929 86.0179 97.3911 85.9799 98.3372C85.8487 98.3048 85.7359 98.302 85.6527 98.2512C82.9497 96.6099 80.024 95.4114 77.1955 94.0212C75.6205 93.2471 75.6106 93.2513 73.8396 93.4515C73.1107 93.5333 72.4028 93.4487 71.6922 93.319C71.0718 93.2062 70.4486 93.1075 69.831 92.9834C69.4573 92.9087 69.133 92.9777 68.7946 93.1484C67.0645 94.0183 65.3358 94.8968 63.5832 95.7202C61.973 96.4774 60.3303 97.1627 58.7088 97.8931C58.1561 98.1412 57.6217 98.426 57.0097 98.7292C56.825 97.7887 56.6403 96.8482 56.4528 95.8922C56.6502 95.7541 56.8095 95.6342 56.9773 95.5285C60.5192 93.2879 64.0654 91.0545 67.6003 88.8013C67.9965 88.5489 68.3392 88.4854 68.789 88.6335C69.8352 88.9803 70.904 89.2638 71.9559 89.5951C72.2576 89.6896 72.5114 89.6727 72.7934 89.5373C73.6874 89.1101 74.5912 88.7026 75.526 88.2711C79.0299 90.7119 82.5394 93.1554 86.0913 95.6286H86.0898Z" fill="black"/>
<path d="M70.6418 103.298C72.3535 103.253 74.0653 103.207 75.8842 103.16C75.7432 103.38 75.6755 103.512 75.5853 103.623C75.0466 104.285 74.5066 104.947 73.9567 105.6C73.4886 106.156 72.7525 106.159 72.3028 105.607C71.7232 104.895 71.1536 104.175 70.5797 103.458C70.6009 103.405 70.6206 103.351 70.6418 103.296V103.298Z" fill="black"/>
<path d="M76.7809 77.7228C76.9882 78.0415 77.187 78.3644 77.4013 78.6774C78.1782 79.8083 78.9566 80.9405 79.7448 82.0643C80.2397 82.7693 80.6514 83.5053 80.8573 84.3555C81.2901 86.1533 80.0268 87.8228 77.7524 87.7819C78.0231 87.6296 78.2219 87.5422 78.394 87.4167C78.9368 87.0219 79.5234 86.6666 79.9915 86.1956C80.5992 85.5837 80.7374 84.7969 80.3172 84.0171C79.9027 83.2473 79.4261 82.5084 78.9467 81.7752C78.4306 80.9842 77.8455 80.2369 77.3548 79.4304C77.046 78.9228 76.8542 78.3432 76.6089 77.7962C76.6667 77.7708 76.7231 77.7468 76.7809 77.7214V77.7228Z" fill="black"/>
<path d="M70.5219 85.9587C68.7904 86.1787 67.1576 86.1815 65.7166 85.0225C65.7208 84.7306 65.8505 84.5558 66.1917 84.5389C67.2253 84.4895 68.256 84.4331 69.2825 84.6333C70.168 84.8053 70.3118 84.9365 70.5219 85.9587Z" fill="black"/>
<path d="M83.5913 98.3133C76.9685 97.7775 70.3442 97.3587 63.6989 97.9326C70.3499 97.0372 76.9784 97.284 83.5913 98.3133Z" fill="black"/>
<path d="M79.0228 85.3454C79.0059 85.7557 78.8226 85.8882 78.4898 85.9728C77.0262 86.3479 75.6064 86.1674 74.1949 85.7317C74.3444 84.9195 75.0269 84.4359 75.7784 84.6037C76.8486 84.8448 77.916 85.0916 79.0242 85.3454H79.0228Z" fill="black"/>
<path d="M63.9949 85.6514C64.9128 86.2887 65.8434 86.9359 66.7895 87.593C65.2935 87.7763 64.0104 86.8612 63.9949 85.6514Z" fill="black"/>
<path d="M76.8416 100.41C75.808 100.729 74.9014 100.729 73.9919 100.547C72.8667 100.323 71.7486 100.497 70.6262 100.574C70.1891 100.603 69.7478 100.568 69.3107 100.497C71.1282 100.372 72.94 100.066 74.7632 100.431C75.1495 100.509 75.5655 100.451 75.9673 100.447C76.2127 100.444 76.458 100.427 76.843 100.41H76.8416Z" fill="black"/>
<path d="M67.0082 94.8151C66.7995 94.9476 66.6021 95.1013 66.3807 95.207C66.0832 95.348 65.7673 95.4496 65.46 95.568L65.4741 95.5835C65.5347 95.5074 65.5812 95.396 65.6588 95.3636C66.1086 95.1746 66.5654 95.0054 67.0208 94.8306L67.0082 94.8165V94.8151Z" fill="black"/>
<path d="M70.6078 93.9141C70.825 94.0114 71.0421 94.1072 71.2593 94.2045C71.2452 94.2384 71.2325 94.2722 71.2184 94.3061C70.997 94.2073 70.777 94.1086 70.5557 94.0099C70.574 93.9789 70.5909 93.9465 70.6092 93.9155L70.6078 93.9141Z" fill="black"/>
<path d="M67.7794 94.6402C67.9302 94.2595 68.3504 94.313 68.6183 94.1213L68.6056 94.1072C68.4731 94.5189 68.0473 94.4555 67.7653 94.6247L67.7794 94.6402Z" fill="black"/>
<path d="M74.7843 94.2807C74.5672 94.378 74.35 94.4752 74.1329 94.5725C74.1188 94.5429 74.1047 94.5147 74.0906 94.4851C74.3007 94.3822 74.5108 94.2807 74.7208 94.1777C74.742 94.2116 74.7632 94.2454 74.7857 94.2793L74.7843 94.2807Z" fill="black"/>
<path d="M69.3868 93.9437C69.5208 93.6575 69.7704 93.6659 70.0383 93.7209C69.8169 93.7914 69.5955 93.8605 69.3741 93.9296L69.3868 93.9437Z" fill="black"/>
<path d="M68.6184 94.1213C68.8736 94.0621 69.1302 94.0015 69.3869 93.9422C69.3869 93.9422 69.3742 93.9281 69.3756 93.9295C69.1331 94.0423 68.9201 94.2778 68.6085 94.1086C68.6057 94.1058 68.6198 94.1199 68.6198 94.1199L68.6184 94.1213Z" fill="black"/>
<path d="M75.9222 94.299C75.8009 94.2412 75.6811 94.1848 75.5598 94.127C75.5697 94.103 75.581 94.079 75.5908 94.0551C75.7177 94.1086 75.8446 94.1608 75.9701 94.2144C75.9532 94.2426 75.9377 94.2708 75.9208 94.299H75.9222Z" fill="black"/>
<path d="M71.8247 94.4526L72.197 94.6317C72.1857 94.6571 72.1744 94.6825 72.1631 94.7078C72.0306 94.6529 71.898 94.5979 71.7655 94.5429C71.7852 94.5133 71.805 94.4822 71.8247 94.4526Z" fill="black"/>
<path d="M67.7653 94.6247C67.5143 94.6882 67.2619 94.753 67.0095 94.8151C67.0095 94.8151 67.0222 94.8292 67.0208 94.8278C67.2591 94.7122 67.472 94.4964 67.7766 94.6374C67.778 94.6388 67.7639 94.6247 67.7639 94.6247H67.7653Z" fill="black"/>
<path d="M65.4599 95.5667C65.2723 95.6456 65.0848 95.7246 64.8959 95.8035C64.8832 95.7542 64.8705 95.7034 64.8578 95.6541C65.0622 95.6287 65.2667 95.6033 65.4726 95.5807C65.474 95.5822 65.4599 95.5667 65.4599 95.5667Z" fill="black"/>
<path d="M62.6061 98.0256H62.8557C62.8557 98.0256 62.8557 98.0355 62.8557 98.0397H62.6145C62.6145 98.0397 62.6089 98.0299 62.6061 98.0256Z" fill="black"/>
</g>
<defs>
<clipPath id="clip0_95_16">
<rect width="141" height="141" fill="white"/>
</clipPath>
</defs>
</svg>
