<?xml version="1.0" encoding="UTF-8"?>
<svg id="Layer_1" xmlns="http://www.w3.org/2000/svg" viewBox="0 0 42.99 42.98">
  <defs>
    <style>
      .cls-1 {
        fill: #fff;
      }
    </style>
  </defs>
  <path class="cls-1" d="M0,19.81c.06-4.28,2.19-9.38,6.37-13.62C10.69,2.04,15.85-.07,21.86,0c11.49.14,21.26,9.58,21.13,21.83-.17,5.85-2.26,10.89-6.45,14.99-4.28,4.19-9.46,6.24-15.46,6.16C9.55,42.82-.04,33.33,0,19.81ZM30.77,24.31c0-2.74,0-5.48,0-8.23q0-.35-.34-.35c-3.4,0-6.81,0-10.21,0-.07,0-.13,0-.2,0-.17,0-.19-.03-.2-.2,0-.32-.02-.65,0-.97.04-.77.45-1.39,1.24-1.65.28-.09.57-.14.87-.14.97,0,1.94,0,2.91,0q.32,0,.32-.31c0-1.33,0-2.65,0-3.98q0-.31-.31-.31c-1.24,0-2.48,0-3.72,0-.43,0-.86.02-1.29.08-.93.11-1.81.38-2.62.83-1.25.69-2.13,1.71-2.63,3.06-.26.71-.37,1.44-.38,2.2,0,.39,0,.78,0,1.17,0,.21-.02.23-.23.23-.06,0-.12,0-.18,0-.84,0-1.68,0-2.53,0-.24,0-.25.02-.26.25,0,.02,0,.04,0,.06,0,1.33,0,2.67,0,4,0,.05,0,.09,0,.14,0,.1.05.15.15.15.06,0,.12,0,.18,0,.84,0,1.68,0,2.53,0,.07,0,.13,0,.2,0,.08,0,.12.05.13.13,0,.07,0,.15,0,.22,0,3.94,0,7.88,0,11.82,0,.38-.01.35.36.35,1.64,0,3.27,0,4.91,0,.36,0,.34.02.34-.34,0-3.95,0-7.91,0-11.86q0-.32.33-.32c1.56,0,3.13,0,4.69,0,.39,0,.36-.01.36.36,0,3.95,0,7.91,0,11.86q0,.3.3.3c1.64,0,3.27,0,4.91,0q.36,0,.36-.35c0-2.74,0-5.47,0-8.21Z"/>
</svg>