<svg width="52" height="54" viewBox="0 0 52 54" fill="none" xmlns="http://www.w3.org/2000/svg">
<path d="M41.1305 7.09485C42.2707 7.09485 43.3642 7.5611 44.1705 8.39104C44.9767 9.22098 45.4297 10.3466 45.4297 11.5203V42.4987C45.4297 43.6724 44.9767 44.798 44.1705 45.628C43.3642 46.4579 42.2707 46.9242 41.1305 46.9242H11.0365C9.89625 46.9242 8.80274 46.4579 7.9965 45.628C7.19025 44.798 6.7373 43.6724 6.7373 42.4987V11.5203C6.7373 10.3466 7.19025 9.22098 7.9965 8.39104C8.80274 7.5611 9.89625 7.09485 11.0365 7.09485H41.1305ZM40.0557 41.3923V29.6648C40.0557 27.7517 39.3174 25.9169 38.0032 24.5641C36.6891 23.2113 34.9066 22.4513 33.0481 22.4513C31.221 22.4513 29.0929 23.6019 28.0611 25.3278V22.8717H22.0638V41.3923H28.0611V30.4835C28.0611 28.7797 29.3938 27.3857 31.049 27.3857C31.8471 27.3857 32.6126 27.7121 33.177 28.293C33.7413 28.874 34.0584 29.6619 34.0584 30.4835V41.3923H40.0557ZM15.0777 19.3977C16.0354 19.3977 16.954 19.006 17.6312 18.3089C18.3085 17.6117 18.6889 16.6662 18.6889 15.6803C18.6889 13.6224 17.0768 11.9408 15.0777 11.9408C14.1142 11.9408 13.1902 12.3347 12.5089 13.036C11.8276 13.7373 11.4449 14.6885 11.4449 15.6803C11.4449 17.7381 13.0786 19.3977 15.0777 19.3977ZM18.0656 41.3923V22.8717H12.1112V41.3923H18.0656Z" fill="white"/>
</svg>
