<svg width="40" height="42" viewBox="0 0 52 54" fill="none" xmlns="http://www.w3.org/2000/svg">
<path d="M16.9995 4.8822H35.0559C41.9346 4.8822 47.5235 10.6353 47.5235 17.7161V36.3031C47.5235 39.7069 46.2099 42.9712 43.8718 45.3781C41.5337 47.7849 38.3625 49.137 35.0559 49.137H16.9995C10.1209 49.137 4.53198 43.3839 4.53198 36.3031V17.7161C4.53198 14.3123 5.84552 11.048 8.18364 8.64116C10.5218 6.23434 13.6929 4.8822 16.9995 4.8822ZM16.5696 9.30768C14.5172 9.30768 12.5489 10.1469 11.0977 11.6408C9.64643 13.1347 8.83113 15.1609 8.83113 17.2735V36.7457C8.83113 41.149 12.2919 44.7115 16.5696 44.7115H35.4859C37.5382 44.7115 39.5065 43.8723 40.9578 42.3784C42.409 40.8845 43.2243 38.8583 43.2243 36.7457V17.2735C43.2243 12.8702 39.7635 9.30768 35.4859 9.30768H16.5696ZM37.313 12.6268C38.0256 12.6268 38.7091 12.9182 39.213 13.4369C39.7169 13.9556 40 14.6592 40 15.3927C40 16.1263 39.7169 16.8298 39.213 17.3485C38.7091 17.8672 38.0256 18.1586 37.313 18.1586C36.6004 18.1586 35.9169 17.8672 35.413 17.3485C34.9091 16.8298 34.626 16.1263 34.626 15.3927C34.626 14.6592 34.9091 13.9556 35.413 13.4369C35.9169 12.9182 36.6004 12.6268 37.313 12.6268ZM26.0277 15.9459C28.8782 15.9459 31.612 17.1115 33.6276 19.1864C35.6432 21.2612 36.7756 24.0753 36.7756 27.0096C36.7756 29.9439 35.6432 32.758 33.6276 34.8328C31.612 36.9077 28.8782 38.0733 26.0277 38.0733C23.1772 38.0733 20.4435 36.9077 18.4278 34.8328C16.4122 32.758 15.2799 29.9439 15.2799 27.0096C15.2799 24.0753 16.4122 21.2612 18.4278 19.1864C20.4435 17.1115 23.1772 15.9459 26.0277 15.9459ZM26.0277 20.3714C24.3174 20.3714 22.6772 21.0708 21.4678 22.3157C20.2584 23.5606 19.579 25.249 19.579 27.0096C19.579 28.7702 20.2584 30.4586 21.4678 31.7035C22.6772 32.9484 24.3174 33.6478 26.0277 33.6478C27.738 33.6478 29.3783 32.9484 30.5877 31.7035C31.797 30.4586 32.4765 28.7702 32.4765 27.0096C32.4765 25.249 31.797 23.5606 30.5877 22.3157C29.3783 21.0708 27.738 20.3714 26.0277 20.3714Z" fill="white"/>
</svg>
