<svg width="40" height="42" viewBox="0 0 52 54" fill="none" xmlns="http://www.w3.org/2000/svg">
<path d="M19 19L30.704 35H33L21.384 19H19Z" fill="white"/>
<path d="M45.9614 27.0531C45.9614 23.3862 45.98 19.7193 45.9614 16.0524C45.9428 14.3536 45.5809 12.7198 44.6808 11.2437C42.9269 8.40305 40.2822 7.06626 37.0343 7.03841C29.7683 6.97343 22.493 7.01056 15.227 7.01056C14.3361 7.01056 13.4639 7.14053 12.6008 7.35404C8.92608 8.27308 6.08649 11.3458 6.04009 15.9225C5.96585 23.3027 6.01225 30.6828 6.04009 38.063C6.04009 39.4555 6.32776 40.8202 6.95878 42.0734C8.61985 45.3597 11.4223 46.9193 14.995 46.9564C22.3445 47.0307 29.6848 46.9935 37.0343 46.9657C38.4356 46.9657 39.8182 46.6872 41.0895 46.0373C44.3653 44.3664 45.8872 41.5814 45.9614 37.998C46.0356 34.3497 45.98 30.6921 45.98 27.0438L45.9614 27.0531ZM30.5292 37.8124L24.683 30.1073L18.1223 37.8124H15.459L23.3839 28.3899L14.1413 16.201H21.565L27.2721 23.7761L33.6472 16.201H36.5239L28.5898 25.5214L37.8417 37.8124H30.5385H30.5292Z" fill="white"/>
</svg>
